<?xml version="1.0" encoding="utf-8"?>
<!-- Generator: Adobe Illustrator 19.0.0, SVG Export Plug-In . SVG Version: 6.00 Build 0)  -->
<svg version="1.1" id="Isolation_Mode" xmlns="http://www.w3.org/2000/svg" xmlns:xlink="http://www.w3.org/1999/xlink" x="0px"
	 y="0px" viewBox="0 0 177.1 63.9" style="enable-background:new 0 0 177.1 63.9;" xml:space="preserve" width="100%" height="100%">
<style type="text/css">
	.st0{fill:url(#SVGID_1_);}
	.st1{fill:url(#SVGID_2_);}
</style>
<g id="logo-shape"><g id="logo-text">
		<path d="M93.2,29l-1.3,1.6c-0.8-0.8-1.7-1.2-2.8-1.2c-0.9,0-1.7,0.3-2.4,0.9c-0.7,0.6-1,1.5-1,2.6c0,1,0.3,1.8,0.9,2.5
			c0.6,0.7,1.4,1,2.5,1c1,0,1.9-0.4,2.9-1.2l1.4,1.5c-1.3,1.3-2.7,2-4.2,2c-1.8,0-3.2-0.6-4.3-1.7c-1-1.1-1.5-2.5-1.5-4.1
			c0-1.6,0.5-3,1.6-4.1c1-1.1,2.4-1.7,4.2-1.7C90.6,27.1,92,27.7,93.2,29z"/>
		<path d="M94.3,23.1h2.4v4.3c0.6-0.2,1.2-0.4,2-0.4c1.6,0,3,0.4,4,1.3c1.1,0.9,1.6,2.2,1.6,3.8v6.3H102v-6.3c0-0.9-0.3-1.6-0.9-2.2
			c-0.6-0.5-1.4-0.8-2.3-0.8c-0.7,0-1.4,0.1-2,0.3v8.9h-2.4V23.1z"/>
		<path d="M106.3,27.3h2.1l0.2,1.3c0.5-1,1.4-1.5,2.6-1.5c0.9,0,1.8,0.3,2.5,0.8l-1,2c-0.6-0.3-1.2-0.5-1.8-0.5
			c-0.6,0-1.1,0.2-1.6,0.6c-0.4,0.4-0.7,1-0.7,1.6v6.9h-2.4V27.3z"/>
		<path d="M124.7,32.9c0,1.6-0.5,3-1.6,4.1c-1.1,1.1-2.5,1.7-4.1,1.7c-1.7,0-3-0.6-4.1-1.7c-1.1-1.1-1.7-2.5-1.7-4.1
			c0-1.6,0.6-2.9,1.7-4.1c1.1-1.1,2.5-1.7,4.1-1.7c1.7,0,3.1,0.6,4.1,1.7C124.2,29.9,124.7,31.2,124.7,32.9z M116.5,30.3
			c-0.7,0.6-1,1.5-1,2.6c0,1.1,0.3,2,1,2.6c0.7,0.6,1.5,0.9,2.4,0.9c0.9,0,1.7-0.3,2.4-0.9c0.7-0.6,1-1.5,1-2.6c0-1.1-0.3-2-1-2.6
			c-0.7-0.6-1.5-0.9-2.4-0.9C118,29.4,117.2,29.7,116.5,30.3z"/>
		<path d="M138.1,29.2c-0.7,0-1.3,0.2-1.7,0.6c-0.4,0.4-0.7,1.1-0.7,2v6.6h-2.4v-6.6c0-0.7-0.1-1.3-0.4-1.8
			c-0.3-0.5-0.7-0.7-1.2-0.9c-0.5-0.1-1-0.2-1.5-0.1c-0.5,0-1.1,0.2-1.6,0.4v9h-2.4V27.8c1.6-0.6,3.1-0.9,4.4-0.9
			c2,0,3.3,0.6,3.9,1.8c0.8-1.2,2-1.8,3.6-1.8c1.4,0,2.6,0.4,3.4,1.2c0.9,0.8,1.3,2,1.3,3.8v6.6h-2.4v-6.5c0-0.9-0.2-1.6-0.6-2
			C139.4,29.4,138.8,29.2,138.1,29.2z"/>
		<path d="M150,36.6c1.3,0,2.4-0.5,3.1-1.5l1.8,1.1c-1.2,1.6-2.9,2.4-4.8,2.4c-1.8,0-3.2-0.6-4.2-1.7c-1-1.1-1.5-2.5-1.5-4
			c0-1.5,0.5-2.9,1.5-4c1-1.1,2.4-1.7,4.1-1.7c1.6,0,2.9,0.5,3.9,1.5c1,1,1.5,2.3,1.5,3.9c0,0.4,0,0.8-0.1,1.3h-8.7
			c0.1,0.8,0.5,1.4,1.1,2C148.4,36.3,149.1,36.6,150,36.6z M146.7,31.8h6.4c-0.2-0.8-0.5-1.5-1.1-1.9c-0.5-0.5-1.2-0.7-2.1-0.7
			c-0.9,0-1.7,0.3-2.2,0.7C147.2,30.4,146.9,31,146.7,31.8z"/>
		<path d="M156.8,42.6v-2c1.1,0.1,1.8-0.2,2.1-1l0.7-1.8l-4.4-10.6h2.4l3.1,7.7l3-7.7h2.4l-5.1,13.1
			C160.3,42.2,158.9,42.9,156.8,42.6z"/>
		<path d="M171.7,36.6c1.3,0,2.4-0.5,3.1-1.5l1.8,1.1c-1.2,1.6-2.9,2.4-4.8,2.4c-1.8,0-3.2-0.6-4.2-1.7c-1-1.1-1.5-2.5-1.5-4
			c0-1.5,0.5-2.9,1.5-4c1-1.1,2.4-1.7,4.1-1.7c1.6,0,2.9,0.5,3.9,1.5c1,1,1.5,2.3,1.5,3.9c0,0.4,0,0.8-0.1,1.3h-8.7
			c0.1,0.8,0.5,1.4,1.1,2C170.1,36.3,170.8,36.6,171.7,36.6z M168.4,31.8h6.4c-0.2-0.8-0.5-1.5-1.1-1.9c-0.5-0.5-1.2-0.7-2.1-0.7
			c-0.9,0-1.7,0.3-2.2,0.7C169,30.4,168.6,31,168.4,31.8z"/>
	</g>
	<g id="svgLogo">
		<linearGradient id="SVGID_1_" gradientUnits="userSpaceOnUse" x1="0.1495" y1="43.465" x2="71.7327" y2="18.1969">
			<stop  offset="0" style="stop-color:#50AABE"/>
			<stop  offset="3.425774e-002" style="stop-color:#469FB9"/>
			<stop  offset="0.1231" style="stop-color:#3087AE"/>
			<stop  offset="0.2178" style="stop-color:#2076A6"/>
			<stop  offset="0.3212" style="stop-color:#176CA1"/>
			<stop  offset="0.45" style="stop-color:#1469A0"/>
			<stop  offset="0.5776" style="stop-color:#1C72A4"/>
			<stop  offset="0.7856" style="stop-color:#338AAF"/>
			<stop  offset="1" style="stop-color:#50AABE"/>
		</linearGradient>
		<path class="st0" d="M70.4,24.4c-1.2-6.6-4.6-12.2-9.5-16c-8.4-6.7-18-8.9-26.7-8.2C29.4,0.5,24.3,1.8,20,3.7
			c-2.6,1.1-5,2.6-7.2,4.2c-1.6,1.2-3.1,2.5-4.4,3.9c-1.5,1.6-2.9,3.3-4.1,5.1c-0.2,0.4-0.5,0.8-0.7,1.2c-2.9,5.6-4.1,11.7-3.4,17.4
			C1,41.8,3.8,47.4,7.9,51.9c2.3,2.5,5.1,4.7,8.3,6.5c5.6,3.2,12.3,5.2,19.4,5.5c-4-0.7-8-2.3-11.5-4.9c-3.8-2.8-6.5-6.4-8.3-10.4
			c0,0-0.1-0.3-0.1-0.3c-0.9-2.8-1.3-5.7-1.2-8.6c0.1-1.6,0.4-3.2,0.8-4.8c0.6-1.7,1.4-3.4,2.5-4.9c2.1-3.1,5.1-5.7,8.3-7.3
			c2.6-1.3,5.6-1.9,8-2.1c1.4-0.1,2.4-0.1,3.7,0.1c1.1,0.1,2.1,0.3,3.2,0.6c0.2,0.1,0.4,0.1,0.6,0.2c0.2,0.1,0.8,0.3,0.9,0.3
			c4,1.4,7.5,4,10.1,7.5c0,0,0.1,0.1,0.1,0.1c0-0.1,0.2,0.3,0.2,0.2c0,0,0.1,0.1,0.1,0.1c5.4,7.4,5.3,17,0,24.5
			C65.1,50,72.8,37.4,70.4,24.4z"/>
		<g>
			
			<linearGradient id="SVGID_2_" gradientUnits="userSpaceOnUse" x1="-993.6931" y1="-176.926" x2="-961.0703" y2="-149.5522" gradientTransform="matrix(-0.8001 -0.5998 -0.5998 0.8001 -844.7065 -415.2367)">
				<stop  offset="0" style="stop-color:#1469A0"/>
				<stop  offset="0.232" style="stop-color:#1C72A4"/>
				<stop  offset="0.6102" style="stop-color:#338AAF"/>
				<stop  offset="1" style="stop-color:#50AABE"/>
			</linearGradient>
			<path class="st1" d="M53.1,29.7c0,0-0.5-0.7-0.6-0.8c-0.6,0.8-1.2,1.5-1.9,2.2c-2.7,2.7-5.9,4.7-9.5,5.6
				C30.9,39.4,20.4,34.3,16.2,25c-2.5,12.6,4.5,25.5,16.9,30c6.3,2.3,12.9,1.8,18.7-0.3C53,54.2,53.1,54,53,54
				C58.3,46.6,58.4,37,53.1,29.7z"/>
		</g>
	</g>
</g>
</svg>
